<svg width="12" height="11" viewBox="0 0 12 11" fill="none" xmlns="http://www.w3.org/2000/svg">
<path d="M6.99997 10.4506L11.0845 5.53841L6.99997 0.626215C6.96309 0.568258 6.91622 0.520461 6.86255 0.486058C6.80888 0.451656 6.74966 0.431452 6.68889 0.426813C6.62813 0.422175 6.56724 0.433211 6.51035 0.459173C6.45346 0.485136 6.4019 0.52542 6.35915 0.577298C6.31641 0.629175 6.28348 0.691435 6.26259 0.759863C6.24171 0.828291 6.23335 0.901288 6.2381 0.973914C6.24284 1.04654 6.26057 1.1171 6.29009 1.18081C6.31961 1.24453 6.36023 1.29991 6.40919 1.34321L9.46512 5.0299L1.33438 5.0299C1.22166 5.0299 1.11355 5.08347 1.03384 5.17884C0.954135 5.2742 0.909355 5.40354 0.909355 5.53841C0.909355 5.67327 0.954135 5.80262 1.03384 5.89798C1.11355 5.99334 1.22166 6.04692 1.33438 6.04692L9.46512 6.04692L6.40919 9.73361C6.32972 9.82936 6.2853 9.95896 6.2857 10.0939C6.28609 10.2288 6.33128 10.3581 6.41131 10.4531C6.49135 10.5482 6.59967 10.6014 6.71246 10.6009C6.82525 10.6004 6.93326 10.5464 7.01273 10.4506H6.99997Z" fill="white"/>
</svg>
