<svg width="16" height="16" viewBox="0 0 16 16" fill="none" xmlns="http://www.w3.org/2000/svg">
<g clip-path="url(#clip0_51_3685)">
<path d="M8.99997 13.4506L13.0845 8.53841L8.99997 3.62621C8.96309 3.56826 8.91622 3.52046 8.86255 3.48606C8.80888 3.45166 8.74966 3.43145 8.68889 3.42681C8.62813 3.42217 8.56724 3.43321 8.51035 3.45917C8.45346 3.48514 8.4019 3.52542 8.35915 3.5773C8.31641 3.62918 8.28348 3.69144 8.26259 3.75986C8.24171 3.82829 8.23335 3.90129 8.2381 3.97391C8.24284 4.04654 8.26057 4.1171 8.29009 4.18081C8.31961 4.24453 8.36023 4.29991 8.40919 4.34321L11.4651 8.0299L3.33438 8.0299C3.22166 8.0299 3.11355 8.08347 3.03384 8.17884C2.95413 8.2742 2.90936 8.40354 2.90936 8.53841C2.90936 8.67327 2.95413 8.80262 3.03384 8.89798C3.11355 8.99334 3.22166 9.04692 3.33438 9.04692L11.4651 9.04692L8.40919 12.7336C8.32972 12.8294 8.2853 12.959 8.2857 13.0939C8.28609 13.2288 8.33128 13.3581 8.41131 13.4531C8.49135 13.5482 8.59967 13.6014 8.71246 13.6009C8.82525 13.6004 8.93326 13.5464 9.01273 13.4506H8.99997Z" fill="white"/>
</g>
<defs>
<clipPath id="clip0_51_3685">
<rect width="15.2627" height="15.2627" fill="white" transform="matrix(0 1 -1 0 15.6313 0.0546875)"/>
</clipPath>
</defs>
</svg>
